<mxfile host="app.diagrams.net" modified="2023-09-27T14:36:47.558Z" agent="Mozilla/5.0 (Windows NT 10.0; Win64; x64) AppleWebKit/537.36 (KHTML, like Gecko) Chrome/116.0.0.0 Safari/537.36 OPR/102.0.0.0" etag="oQYiNzeGK8r-wnqkucN7" version="21.8.0" type="onedrive">
  <diagram name="Страница — 1" id="-vj2fLhi342bIBVyt7QX">
    <mxGraphModel dx="4046" dy="-221" grid="1" gridSize="10" guides="1" tooltips="1" connect="1" arrows="1" fold="1" page="1" pageScale="1" pageWidth="827" pageHeight="1169" math="0" shadow="0">
      <root>
        <mxCell id="0" />
        <mxCell id="1" parent="0" />
        <mxCell id="tG1HkuaIECVtC7acq1q9-1" value="" style="rounded=0;whiteSpace=wrap;html=1;" vertex="1" parent="1">
          <mxGeometry x="-1370" y="2180" width="360" height="600" as="geometry" />
        </mxCell>
        <mxCell id="tG1HkuaIECVtC7acq1q9-2" value="" style="rounded=0;whiteSpace=wrap;html=1;" vertex="1" parent="1">
          <mxGeometry x="-1330" y="2290" width="280" height="440" as="geometry" />
        </mxCell>
        <mxCell id="tG1HkuaIECVtC7acq1q9-3" value="&lt;font style=&quot;font-size: 35px;&quot;&gt;Роздратованість оточуючих&lt;/font&gt;" style="text;html=1;strokeColor=none;fillColor=none;align=center;verticalAlign=middle;whiteSpace=wrap;rounded=0;fontSize=36;" vertex="1" parent="1">
          <mxGeometry x="-1322.5" y="2310" width="265" height="160" as="geometry" />
        </mxCell>
        <mxCell id="tG1HkuaIECVtC7acq1q9-4" value="&lt;font style=&quot;font-size: 16px;&quot;&gt;Температура&lt;/font&gt;" style="rounded=0;whiteSpace=wrap;html=1;fillColor=#FFFFFF;" vertex="1" parent="1">
          <mxGeometry x="-1330" y="2240" width="140" height="40" as="geometry" />
        </mxCell>
        <mxCell id="tG1HkuaIECVtC7acq1q9-5" value="&lt;font style=&quot;font-size: 16px;&quot;&gt;Роздратованість&lt;/font&gt;" style="rounded=0;whiteSpace=wrap;html=1;fillColor=#3399FF;" vertex="1" parent="1">
          <mxGeometry x="-1190" y="2240" width="140" height="40" as="geometry" />
        </mxCell>
        <mxCell id="tG1HkuaIECVtC7acq1q9-6" value="" style="endArrow=none;html=1;rounded=0;strokeWidth=8;strokeColor=#3399FF;" edge="1" parent="1">
          <mxGeometry width="50" height="50" relative="1" as="geometry">
            <mxPoint x="-1048" y="2286" as="sourcePoint" />
            <mxPoint x="-1330" y="2286" as="targetPoint" />
          </mxGeometry>
        </mxCell>
        <mxCell id="tG1HkuaIECVtC7acq1q9-7" value="&lt;span style=&quot;font-size: 22px;&quot;&gt;У даний момент, люди навколо вас не роздратовані через температуру&lt;/span&gt;" style="text;html=1;strokeColor=none;fillColor=none;align=center;verticalAlign=middle;whiteSpace=wrap;rounded=0;" vertex="1" parent="1">
          <mxGeometry x="-1280" y="2510" width="200" height="110" as="geometry" />
        </mxCell>
        <mxCell id="tG1HkuaIECVtC7acq1q9-8" value="" style="ellipse;whiteSpace=wrap;html=1;" vertex="1" parent="1">
          <mxGeometry x="-1100" y="2190" width="20" height="20" as="geometry" />
        </mxCell>
        <mxCell id="tG1HkuaIECVtC7acq1q9-9" value="" style="ellipse;whiteSpace=wrap;html=1;" vertex="1" parent="1">
          <mxGeometry x="-1070" y="2190" width="20" height="20" as="geometry" />
        </mxCell>
        <mxCell id="tG1HkuaIECVtC7acq1q9-10" value="" style="ellipse;whiteSpace=wrap;html=1;strokeColor=#3399FF;" vertex="1" parent="1">
          <mxGeometry x="-1040" y="2190" width="20" height="20" as="geometry" />
        </mxCell>
        <mxCell id="tG1HkuaIECVtC7acq1q9-11" value="&lt;font style=&quot;font-size: 20px;&quot;&gt;Профіль&lt;/font&gt;" style="rounded=0;whiteSpace=wrap;html=1;" vertex="1" parent="1">
          <mxGeometry x="-1360" y="2190" width="160" height="30" as="geometry" />
        </mxCell>
        <mxCell id="tG1HkuaIECVtC7acq1q9-12" value="" style="rounded=0;whiteSpace=wrap;html=1;" vertex="1" parent="1">
          <mxGeometry x="-1900" y="2180" width="360" height="600" as="geometry" />
        </mxCell>
        <mxCell id="tG1HkuaIECVtC7acq1q9-13" value="" style="rounded=0;whiteSpace=wrap;html=1;" vertex="1" parent="1">
          <mxGeometry x="-1860" y="2290" width="280" height="440" as="geometry" />
        </mxCell>
        <mxCell id="tG1HkuaIECVtC7acq1q9-14" value="Температура навколишнього середовища" style="text;html=1;strokeColor=none;fillColor=none;align=center;verticalAlign=middle;whiteSpace=wrap;rounded=0;fontSize=36;" vertex="1" parent="1">
          <mxGeometry x="-1852.5" y="2310" width="265" height="160" as="geometry" />
        </mxCell>
        <mxCell id="tG1HkuaIECVtC7acq1q9-15" value="&lt;font style=&quot;font-size: 22px;&quot;&gt;Температура 24&lt;/font&gt;&lt;font style=&quot;font-size: 22px;&quot;&gt;℃&lt;/font&gt;" style="text;html=1;strokeColor=none;fillColor=none;align=center;verticalAlign=middle;whiteSpace=wrap;rounded=0;" vertex="1" parent="1">
          <mxGeometry x="-1820" y="2560" width="200" height="30" as="geometry" />
        </mxCell>
        <mxCell id="tG1HkuaIECVtC7acq1q9-16" value="&lt;font style=&quot;font-size: 16px;&quot;&gt;Температура&lt;/font&gt;" style="rounded=0;whiteSpace=wrap;html=1;fillColor=#3399FF;" vertex="1" parent="1">
          <mxGeometry x="-1860" y="2240" width="140" height="40" as="geometry" />
        </mxCell>
        <mxCell id="tG1HkuaIECVtC7acq1q9-17" value="&lt;font style=&quot;font-size: 16px;&quot;&gt;Роздратованість&lt;/font&gt;" style="rounded=0;whiteSpace=wrap;html=1;" vertex="1" parent="1">
          <mxGeometry x="-1720" y="2240" width="140" height="40" as="geometry" />
        </mxCell>
        <mxCell id="tG1HkuaIECVtC7acq1q9-18" value="" style="endArrow=none;html=1;rounded=0;strokeWidth=8;strokeColor=#3399FF;" edge="1" parent="1">
          <mxGeometry width="50" height="50" relative="1" as="geometry">
            <mxPoint x="-1578" y="2286" as="sourcePoint" />
            <mxPoint x="-1860" y="2286" as="targetPoint" />
          </mxGeometry>
        </mxCell>
        <mxCell id="tG1HkuaIECVtC7acq1q9-19" value="" style="ellipse;whiteSpace=wrap;html=1;" vertex="1" parent="1">
          <mxGeometry x="-1630" y="2190" width="20" height="20" as="geometry" />
        </mxCell>
        <mxCell id="tG1HkuaIECVtC7acq1q9-20" value="" style="ellipse;whiteSpace=wrap;html=1;" vertex="1" parent="1">
          <mxGeometry x="-1600" y="2190" width="20" height="20" as="geometry" />
        </mxCell>
        <mxCell id="tG1HkuaIECVtC7acq1q9-21" value="" style="ellipse;whiteSpace=wrap;html=1;strokeColor=#3399FF;" vertex="1" parent="1">
          <mxGeometry x="-1570" y="2190" width="20" height="20" as="geometry" />
        </mxCell>
        <mxCell id="tG1HkuaIECVtC7acq1q9-22" value="&lt;font style=&quot;font-size: 20px;&quot;&gt;Профіль&lt;/font&gt;" style="rounded=0;whiteSpace=wrap;html=1;" vertex="1" parent="1">
          <mxGeometry x="-1890" y="2190" width="160" height="30" as="geometry" />
        </mxCell>
        <mxCell id="tG1HkuaIECVtC7acq1q9-24" value="" style="endArrow=classic;html=1;rounded=0;exitX=1;exitY=0.5;exitDx=0;exitDy=0;entryX=0;entryY=0.5;entryDx=0;entryDy=0;" edge="1" parent="1" source="tG1HkuaIECVtC7acq1q9-17" target="tG1HkuaIECVtC7acq1q9-1">
          <mxGeometry width="50" height="50" relative="1" as="geometry">
            <mxPoint x="-1340" y="2460" as="sourcePoint" />
            <mxPoint x="-1290" y="2410" as="targetPoint" />
          </mxGeometry>
        </mxCell>
      </root>
    </mxGraphModel>
  </diagram>
</mxfile>
